<svg xmlns="http://www.w3.org/2000/svg" viewBox="0 0 24 24" fill="none" width="100" height="100">
  <path d="M12 2C6.48 2 2 6.48 2 12s4.48 10 10 10 10-4.48 10-10S17.52 2 12 2zM3.05 13h2.43a8.005 8.005 0 0 0 6.52 6.52v2.43A10.013 10.013 0 0 1 3.05 13zM12 20c-1.53 0-3-.35-4.3-.97l1.75-1.75c.96.28 1.96.42 2.99.42.22 0 .43-.01.64-.02l.24 1.99C13.1 19.99 12.55 20 12 20zm7.95-3h-2.43a8.005 8.005 0 0 0-6.52-6.52v-2.43A10.013 10.013 0 0 1 20.95 11v6zM20 12c0 1.53-.35 3-.97 4.3l-1.75-1.75c.28-.96.42-1.96.42-2.99 0-.22-.01-.43-.02-.64l1.99-.24c.01.55.02 1.1.02 1.55zM20 12c0-1.53-.35-3-.97-4.3l-1.75 1.75c.28.96.42 1.96.42 2.99 0 .22-.01.43-.02.64l1.99.24c.01-.55.02-1.1.02-1.55zM12 4c1.53 0 3 .35 4.3.97l-1.75 1.75c-.96-.28-1.96-.42-2.99-.42-.22 0-.43.01-.64.02l-.24-1.99C10.9 4.01 11.45 4 12 4zm-7.95 3h2.43a8.005 8.005 0 0 0 6.52-6.52V3.05A10.013 10.013 0 0 0 4.05 7zM4 12c0-1.53.35-3 .97-4.3L6.72 9.45c-.28.96-.42 1.96-.42 2.99 0 .22.01.43.02.64l-1.99.24c-.01-.55-.02-1.1-.02-1.55zm8-8c-1.53 0-3 .35-4.3.97L5.45 6.72c.96-.28 1.96-.42 2.99-.42.22 0 .43.01.64.02l.24-1.99C10.9 4.01 11.45 4 12 4zm0 16c1.53 0 3-.35 4.3-.97L18.55 17c-.96.28-1.96.42-2.99.42-.22 0-.43-.01-.64-.02l-.24 1.99c.12.01.23.01.36.01zM4 12c0 1.53.35 3 .97 4.3l1.75-1.75c-.28-.96-.42-1.96-.42-2.99 0-.22.01-.43.02-.64l-1.99-.24c-.01.55-.02 1.1-.02 1.55zM12 4c-1.53 0-3 .35-4.3.97l1.75 1.75c.96-.28 1.96-.42 2.99-.42.22 0 .43.01.64.02l.24-1.99C13.1 4.01 12.55 4 12 4z" fill="#000"/>
</svg>