<svg id="visual" viewBox="0 0 900 600" width="900" height="600" xmlns="http://www.w3.org/2000/svg" xmlns:xlink="http://www.w3.org/1999/xlink" version="1.1"><rect x="0" y="0" width="900" height="600" fill="#0715a5" class="svg-elem-1"></rect><path d="M0 426L21.5 428.3C43 430.7 86 435.3 128.8 428.3C171.7 421.3 214.3 402.7 257.2 387.8C300 373 343 362 385.8 369.8C428.7 377.7 471.3 404.3 514.2 412.5C557 420.7 600 410.3 642.8 409C685.7 407.7 728.3 415.3 771.2 412.8C814 410.3 857 397.7 878.5 391.3L900 385L900 601L878.5 601C857 601 814 601 771.2 601C728.3 601 685.7 601 642.8 601C600 601 557 601 514.2 601C471.3 601 428.7 601 385.8 601C343 601 300 601 257.2 601C214.3 601 171.7 601 128.8 601C86 601 43 601 21.5 601L0 601Z" fill="#fa7268" class="svg-elem-2"></path><path d="M0 474L21.5 466.7C43 459.3 86 444.7 128.8 435.3C171.7 426 214.3 422 257.2 418.2C300 414.3 343 410.7 385.8 415.3C428.7 420 471.3 433 514.2 433.5C557 434 600 422 642.8 416.3C685.7 410.7 728.3 411.3 771.2 416.2C814 421 857 430 878.5 434.5L900 439L900 601L878.5 601C857 601 814 601 771.2 601C728.3 601 685.7 601 642.8 601C600 601 557 601 514.2 601C471.3 601 428.7 601 385.8 601C343 601 300 601 257.2 601C214.3 601 171.7 601 128.8 601C86 601 43 601 21.5 601L0 601Z" fill="#ef5f67" class="svg-elem-3"></path><path d="M0 453L21.5 453.2C43 453.3 86 453.7 128.8 462.8C171.7 472 214.3 490 257.2 489.8C300 489.7 343 471.3 385.8 462.5C428.7 453.7 471.3 454.3 514.2 462.2C557 470 600 485 642.8 486C685.7 487 728.3 474 771.2 473.3C814 472.7 857 484.3 878.5 490.2L900 496L900 601L878.5 601C857 601 814 601 771.2 601C728.3 601 685.7 601 642.8 601C600 601 557 601 514.2 601C471.3 601 428.7 601 385.8 601C343 601 300 601 257.2 601C214.3 601 171.7 601 128.8 601C86 601 43 601 21.5 601L0 601Z" fill="#e34c67" class="svg-elem-4"></path><path d="M0 495L21.5 499.2C43 503.3 86 511.7 128.8 510C171.7 508.3 214.3 496.7 257.2 496.2C300 495.7 343 506.3 385.8 513.8C428.7 521.3 471.3 525.7 514.2 519.8C557 514 600 498 642.8 499.3C685.7 500.7 728.3 519.3 771.2 521.2C814 523 857 508 878.5 500.5L900 493L900 601L878.5 601C857 601 814 601 771.2 601C728.3 601 685.7 601 642.8 601C600 601 557 601 514.2 601C471.3 601 428.7 601 385.8 601C343 601 300 601 257.2 601C214.3 601 171.7 601 128.8 601C86 601 43 601 21.5 601L0 601Z" fill="#d53867" class="svg-elem-5"></path><path d="M0 555L21.5 556.7C43 558.3 86 561.7 128.8 557.7C171.7 553.7 214.3 542.3 257.2 539C300 535.7 343 540.3 385.8 545.2C428.7 550 471.3 555 514.2 559.2C557 563.3 600 566.7 642.8 567.7C685.7 568.7 728.3 567.3 771.2 566C814 564.7 857 563.3 878.5 562.7L900 562L900 601L878.5 601C857 601 814 601 771.2 601C728.3 601 685.7 601 642.8 601C600 601 557 601 514.2 601C471.3 601 428.7 601 385.8 601C343 601 300 601 257.2 601C214.3 601 171.7 601 128.8 601C86 601 43 601 21.5 601L0 601Z" fill="#c62368" class="svg-elem-6"></path></svg>